<svg id="Layer_1" data-name="Layer 1" xmlns="http://www.w3.org/2000/svg" viewBox="0 0 30 30"><title>icon</title><path d="M23.94,26m-5,1.57h0a47.47,47.47,0,0,1-6,.35c-7.1,0-11-1.27-11-1.92V24.43a3.34,3.34,0,0,1,1.91-3l4.66-2.34a2.2,2.2,0,0,0,1.26-2V15.24l-.12-.13a9,9,0,0,1-1.78-3.4l0-.19-.17-.1a1,1,0,0,1-.49-.81V8.68A.94.94,0,0,1,7.58,8l.16-.14v-3a3.16,3.16,0,0,1,.84-2.42C9.45,1.46,10.92,1,13,1s3.51.46,4.38,1.36a3.2,3.2,0,0,1,.85,2.43V7.83l.18.15a.92.92,0,0,1,.35.7v1.93a1,1,0,0,1-.75.91l-.26.08-.08.23a9.86,9.86,0,0,1-1.48,2.75,6.56,6.56,0,0,1-.44.52l-.13.13v2a2.22,2.22,0,0,0,1.34,2L18.7,20" style="fill:none;stroke:#000;stroke-linecap:round;stroke-miterlimit:10"/><circle cx="22.65" cy="23.65" r="5.35" style="fill:none;stroke:#000;stroke-linecap:round;stroke-miterlimit:10"/><line x1="22.65" y1="20.97" x2="22.65" y2="26.33" style="fill:none;stroke:#000;stroke-linecap:round;stroke-miterlimit:10"/><line x1="19.97" y1="23.65" x2="25.32" y2="23.65" style="fill:none;stroke:#000;stroke-linecap:round;stroke-miterlimit:10"/></svg>