<svg id="Layer_1" data-name="Layer 1" xmlns="http://www.w3.org/2000/svg" viewBox="0 0 18 18"><title>menu icons</title><path d="M13.6,5.91V3.41a.92.92,0,0,0-.91-.92H1.8a.92.92,0,0,0-.92.92V9.94a.92.92,0,0,0,.92.91h.7v2.44a.39.39,0,0,0,.24.35l.15,0a.4.4,0,0,0,.27-.11l2.7-2.71H6.4" style="fill:none;stroke:#756482;stroke-linecap:round;stroke-miterlimit:10;stroke-width:0.5px"/><path d="M16.2,7.18H8.58a.91.91,0,0,0-.91.91v4.46a.91.91,0,0,0,.91.91h4.77l1.94,1.93a.36.36,0,0,0,.27.12.32.32,0,0,0,.14,0,.38.38,0,0,0,.24-.36V13.46h.26a.92.92,0,0,0,.92-.91V8.09A.92.92,0,0,0,16.2,7.18Z" style="fill:none;stroke:#756482;stroke-linecap:round;stroke-miterlimit:10;stroke-width:0.5px"/><path d="M12.39,9.94a.38.38,0,1,0,.38.38A.38.38,0,0,0,12.39,9.94Z" style="fill:#756482"/><path d="M10.73,5h-7" style="fill:none;stroke:#756482;stroke-linecap:round;stroke-miterlimit:10;stroke-width:0.5px"/><path d="M3.76,8.32H6.4" style="fill:none;stroke:#756482;stroke-linecap:round;stroke-miterlimit:10;stroke-width:0.5px"/><path d="M10.61,9.94a.38.38,0,1,0,.38.38A.38.38,0,0,0,10.61,9.94Z" style="fill:#756482"/><path d="M14.17,9.94a.38.38,0,1,0,.38.38A.38.38,0,0,0,14.17,9.94Z" style="fill:#756482"/></svg>