<svg id="Layer_1" data-name="Layer 1" xmlns="http://www.w3.org/2000/svg" viewBox="0 0 30 30"><title>icon</title><rect x="6.11" y="1.67" width="20.19" height="26.66" rx="1" style="fill:none;stroke:#000;stroke-linecap:round;stroke-miterlimit:10"/><line x1="3.69" y1="10.15" x2="8.32" y2="10.15" style="fill:none;stroke:#000;stroke-linecap:round;stroke-miterlimit:10"/><line x1="3.69" y1="19.85" x2="8.32" y2="19.85" style="fill:none;stroke:#000;stroke-linecap:round;stroke-miterlimit:10"/><path d="M14.61,8.25a1.11,1.11,0,0,0-.65,0,4.56,4.56,0,0,0-.8.39,2,2,0,0,0-.66.53,1.81,1.81,0,0,0-.32.91,8.18,8.18,0,0,0,.45,3.63,15.66,15.66,0,0,0,1.3,2.93,13.51,13.51,0,0,0,3.53,4.22c1,.76,2,1.07,2.48.8l.3-.16c.53-.28,1.14-.61,1.26-1.11a1.74,1.74,0,0,0-.44-1.31c-1.12-1.56-1.63-1.27-2.49-.78l-.17.1c-.41.23-.91,0-1.48-.64a12.28,12.28,0,0,1-1.36-2,8.26,8.26,0,0,1-1.17-2.81,1.48,1.48,0,0,1,0-.47.75.75,0,0,1,.2-.42,1.8,1.8,0,0,1,.4-.25,1.89,1.89,0,0,0,.76-.58A1.39,1.39,0,0,0,15.81,10C15.63,9.42,15.33,8.46,14.61,8.25Zm0,0" style="fill:none;stroke:#000;stroke-linecap:round;stroke-miterlimit:10"/></svg>