<svg id="Layer_1" data-name="Layer 1" xmlns="http://www.w3.org/2000/svg" viewBox="0 0 30 30"><title>icon</title><path d="M12.75,12.41a.45.45,0,0,0,0,.2c.44,1.35.72,2.73,1,4.12a1.73,1.73,0,0,0,1.62,1.35,1.66,1.66,0,0,0,1.5-.89,1.64,1.64,0,0,0-.18-1.8,7.18,7.18,0,0,0-1.16-1c-.73-.62-1.33-1.38-2-2.06-.19-.19-.49-.39-.71-.23A.39.39,0,0,0,12.75,12.41Zm1.38,1.47" style="fill:none;stroke:#000;stroke-linecap:round;stroke-miterlimit:10"/><path d="M27.76,16a12.7,12.7,0,0,1-2.61,7.72,1,1,0,0,1-.79.38H5.28a1,1,0,0,1-.8-.38A12.7,12.7,0,0,1,1.87,16,12.89,12.89,0,0,1,14.81,3.16h.11A12.89,12.89,0,0,1,27.76,16Z" style="fill:none;stroke:#000;stroke-linecap:round;stroke-miterlimit:10"/><line x1="27.52" y1="16" x2="24.52" y2="16" style="fill:none;stroke:#000;stroke-linecap:round;stroke-miterlimit:10"/><line x1="5.12" y1="16" x2="2.12" y2="16" style="fill:none;stroke:#000;stroke-linecap:round;stroke-miterlimit:10"/><line x1="14.82" y1="6.35" x2="14.82" y2="3.35" style="fill:none;stroke:#000;stroke-linecap:round;stroke-miterlimit:10"/><line x1="7.38" y1="26.47" x2="22.25" y2="26.47" style="fill:none;stroke:#000;stroke-linecap:round;stroke-miterlimit:10"/></svg>