<svg id="Layer_1" data-name="Layer 1" xmlns="http://www.w3.org/2000/svg" viewBox="0 0 18 18"><title>FeedBack</title><path d="M5.73,11.56c0-.65,0-1.3,0-2V8.38c0-.25-.05-.62.3-.64A3.76,3.76,0,0,0,8.89,6.09,8.6,8.6,0,0,0,10.3,2.91a5.15,5.15,0,0,1,.24-.76.91.91,0,0,1,1.61-.24A2,2,0,0,1,12.59,3a11.4,11.4,0,0,1-.27,3.24,2.71,2.71,0,0,0-.06.38c0,.34.08.47.42.47h2.18a1.62,1.62,0,0,1,.94.25,1.66,1.66,0,0,1,.59,1.69.37.37,0,0,0,.11.38,2.14,2.14,0,0,1-.05,2.76.26.26,0,0,0-.07.21,1.61,1.61,0,0,1-.78,1.86.23.23,0,0,0-.07.23A1.68,1.68,0,0,1,15,16.16a1.32,1.32,0,0,1-.89.32h-3.8A5.67,5.67,0,0,1,8,15.92a5.63,5.63,0,0,0-1.84-.48c-.35,0-.4-.09-.4-.44Z" style="fill:none;stroke:#756482;stroke-linecap:round;stroke-miterlimit:10;stroke-width:0.5px"/><rect x="1.02" y="7.88" width="3.69" height="7.34" rx="0.66" style="fill:none;stroke:#756482;stroke-linecap:round;stroke-miterlimit:10;stroke-width:0.5px"/></svg>