<svg id="Layer_1" data-name="Layer 1" xmlns="http://www.w3.org/2000/svg" viewBox="0 0 18 18"><title>Location</title><path d="M9.05,16.92l0-.05a26.6,26.6,0,0,0,5-7.88,6.43,6.43,0,0,0,.41-3.1,5.36,5.36,0,0,0-2-3.58,5.28,5.28,0,0,0-5.93-.68A5.35,5.35,0,0,0,3.43,6.72a8.05,8.05,0,0,0,.78,3.19,27.09,27.09,0,0,0,4.69,7C9,17,9,17,9.05,16.92Z" style="fill:none;stroke:#756482;stroke-linecap:round;stroke-miterlimit:10;stroke-width:0.5px"/><path d="M9,8.89A2.76,2.76,0,1,0,6.26,6.13,2.78,2.78,0,0,0,9,8.89Z" style="fill:none;stroke:#756482;stroke-linecap:round;stroke-miterlimit:10;stroke-width:0.5px"/></svg>