<svg id="Layer_1" data-name="Layer 1" xmlns="http://www.w3.org/2000/svg" viewBox="0 0 18 18"><title>menu icons</title><path d="M15.63,4.91l-.18.19a1.28,1.28,0,0,1-.81.43,2,2,0,0,1-2.17-2.17,1.28,1.28,0,0,1,.43-.81l.19-.18L11.61.89a.69.69,0,0,0-1,0L.89,10.63a.69.69,0,0,0,0,1l1.48,1.48.18-.19a1.28,1.28,0,0,1,.81-.43,2,2,0,0,1,2.17,2.17,1.28,1.28,0,0,1-.43.81l-.19.18,1.48,1.48a.69.69,0,0,0,1,0l9.74-9.74a.69.69,0,0,0,0-1Z" style="fill:none;stroke:#756482;stroke-linecap:round;stroke-miterlimit:10;stroke-width:0.5px"/><path d="M9.19,5.89,10.25,7" style="fill:none;stroke:#756482;stroke-linecap:round;stroke-miterlimit:10;stroke-width:0.5px"/><path d="M11.05,7.75l1.06,1.06" style="fill:none;stroke:#756482;stroke-linecap:round;stroke-miterlimit:10;stroke-width:0.5px"/><line x1="8.38" y1="5.09" x2="7.41" y2="4.11" style="fill:none;stroke:#756482;stroke-linecap:round;stroke-miterlimit:10;stroke-width:0.5px"/><line x1="13.89" y1="10.59" x2="12.92" y2="9.62" style="fill:none;stroke:#756482;stroke-linecap:round;stroke-miterlimit:10;stroke-width:0.5px"/></svg>